<svg height="68" viewBox="0 0 63.842 68" width="63.842" xmlns="http://www.w3.org/2000/svg"><path d="m63 4v64.6l-5.1 3.4-5.1-3.4-5.1 3.4-5.1-3.4-5.1 3.4-5.1-3.4-5.1 3.4-5.1-3.4-5.1 3.4-5.1-3.4v-64.6l5.1 3.4 5.1-3.4 5.1 3.4 5.1-3.4 5.1 3.4 5.1-3.4 5.1 3.4 5.1-3.4 5.1 3.4z" fill="#2980b9" opacity=".25" transform="translate(-12 -4)"/><path d="m5 18.242h21.462v4.292h-21.462z" fill="#95c0dc"/><path d="m38.801 18.242h7.512v4.292h-7.512z" fill="#7986cb"/><path d="m5 25.754h18.242v3.219h-18.242z" fill="#95c0dc"/><path d="m38.801 25.754h7.512v3.219h-7.512z" fill="#7986cb"/><path d="m5 32.192h20.389v3.219h-20.389z" fill="#95c0dc"/><path d="m38.801 32.192h7.512v3.219h-7.512z" fill="#7986cb"/><path d="m5 38.631h23.608v4.292h-23.608z" fill="#95c0dc"/><path d="m38.801 38.631h7.512v4.292h-7.512z" fill="#7986cb"/><path d="m5 10.731h32.192v3.219h-32.192z" fill="#95c0dc"/><path d="m38.801 55.8h7.512v3.219h-7.512z" fill="#fff"/><path d="m18.412 55.8h16.096v3.219h-16.096z" fill="#fff"/><path d="m26.441 31v3.4h-11.441v-3.4z" fill="#95c0dc" transform="translate(-10 14.9)"/><path d="m33.684 29.842a15.842 15.842 0 1 1 -15.842-15.842 15.889 15.889 0 0 1 15.842 15.842" fill="#fe8f01" transform="translate(30.158 1.842)"/><path d="m19.373 31.816c0 3.961-3.8 4.436-4.436 4.436v2.218h-1.584v-2.218a4.878 4.878 0 0 1 -4.753-5.228h3.168a2.357 2.357 0 0 0 2.376 2.693c2.059 0 2.059-1.584 2.059-1.9 0-3.485-7.129-2.059-7.129-7.6a4.461 4.461 0 0 1 4.436-4.436v-2.381h1.743v2.376c1.109.158 4.119.951 4.119 5.07h-3.172c0-.951-.158-2.693-2.059-2.693a1.868 1.868 0 0 0 -1.741 2.059c0 3.327 6.971 2.059 6.971 7.6" fill="#fff" transform="translate(34.014 3.829)"/></svg>