<svg height="71.29" viewBox="0 0 63.369 71.29" width="63.369" xmlns="http://www.w3.org/2000/svg"><g transform="translate(-8 -3)"><path d="m58.7 69.537h-50.7v-66.537h34.853l15.847 15.842z" fill="#2980b9" opacity=".25"/><path d="m44.05 19.55h-15.05v-15.05z" fill="#94c0dc" transform="translate(12.269 .876)"/><path d="m17.287 51.269a4.657 4.657 0 0 1 -1.578-.317 2.849 2.849 0 0 1 -1.578-3.485c.631-1.9 4.1-4.277 8.678-6.337a57.149 57.149 0 0 0 4.577-11.09 18.1 18.1 0 0 1 -2.3-7.921 5.459 5.459 0 0 1 .719-2.852 3.46 3.46 0 0 1 2.844-1.267 3.034 3.034 0 0 1 3 2.218c.789 1.9.315 5.386-.789 9.347a31.673 31.673 0 0 0 5.523 7.129 21.765 21.765 0 0 1 7.417-.634c3 .475 3.469 2.535 3.469 3.327 0 3.327-3.471 3.327-4.734 3.327a10.546 10.546 0 0 1 -6.785-2.693 59.058 59.058 0 0 0 -10.573 3.644 27.011 27.011 0 0 1 -4.577 6.178 5.54 5.54 0 0 1 -3.313 1.426zm12.308-17.744c-.631 1.9-1.578 3.961-2.367 5.862 1.893-.634 3.788-1.267 5.681-1.743a27.071 27.071 0 0 1 -3.314-4.119z" fill="#fff" transform="translate(3.506 8.763)"/><g fill="#fe8f01"><path d="m57.348 38h-25.348l12.674 15.842z" transform="translate(14.021 20.448)"/><path d="m37 31h9.505v19.011h-9.505z" transform="translate(16.942 16.358)"/></g></g></svg>