<svg viewBox="0 0 229 19" xmlns="http://www.w3.org/2000/svg"><g fill="#1c75bc"><path d="M4.88 16.72H1.3V2.73h9.05v3.33H4.88v2.75h4.51v3.33H4.88zM18.91 2.5h.19l7.48 14.07-.11.15H22.8l-.86-1.86H16l-.88 1.86h-3.57l-.11-.15zM19 8.51l-1.54 3.24h3.04zM33.3 16.72h-3.57V2.73h3.57v7.01l4.8-7.01h3.81l.08.17-4.93 6.64 5.59 7.02-.08.17h-4.09L33.3 10.1zM52.86 16.72h-3.57V6.21h-4.35V2.73h12.29v3.48h-4.36v10.51zM63.87 10.54c0 .9.22 1.61.66 2.14s1.1.79 1.99.79c.93 0 1.64-.28 2.13-.85.5-.57.75-1.3.75-2.2V2.73h3.57v8.32c0 1.61-.61 3-1.83 4.17-1.21 1.15-2.75 1.73-4.62 1.73-1.89 0-3.4-.54-4.53-1.62s-1.7-2.42-1.7-4.04V2.73h3.57v7.81zM80.87 16.72H77.3V2.73h5.88c1.41 0 2.6.42 3.59 1.27 1.01.85 1.52 2.08 1.52 3.71 0 1.89-.71 3.3-2.12 4.23l2.67 4.63-.08.15h-3.65l-2.18-3.79H80.86v3.79zm1.51-10.89h-1.52v3.99h1.23c.78 0 1.41-.19 1.88-.56s.7-.87.7-1.5c0-.62-.21-1.09-.64-1.43s-.97-.5-1.65-.5zM98.89 2.5h.19l7.48 14.07-.11.15h-3.66l-.86-1.86h-5.94l-.88 1.86h-3.57l-.11-.15zm.09 6.01-1.54 3.24h3.04z"/></g><g fill="#010101"><path d="M122.8 9.74c0 2.01-.68 3.72-2.05 5.12-1.36 1.39-3.13 2.09-5.3 2.09-2.18 0-3.94-.7-5.28-2.09s-2.02-3.1-2.02-5.12c0-2.01.68-3.72 2.05-5.14 1.36-1.4 3.13-2.1 5.32-2.1s3.94.7 5.26 2.1c1.34 1.4 2.02 3.11 2.02 5.14zm-3.61.02c0-1.11-.36-2.02-1.08-2.73-.7-.69-1.58-1.04-2.65-1.04s-1.95.35-2.65 1.04-1.05 1.6-1.05 2.73c0 1.06.36 1.93 1.07 2.64.74.71 1.62 1.06 2.64 1.06 1.01 0 1.89-.36 2.63-1.06.72-.71 1.09-1.59 1.09-2.64zM130.24 16.72h-3.57V2.5h.2l9.29 7.43v-7.2h3.57v14.22h-.2l-9.29-7.55zM153.35 13.23v3.49h-9.05V2.73h3.57v10.5zM160.44 16.72h-3.57V2.73h3.57zM168.58 16.72h-3.57V2.5h.2l9.29 7.43v-7.2h3.57v14.22h-.2l-9.29-7.55zM191.7 13.39v3.33h-9.05V2.73h9.05v3.33h-5.48v2.41h4.51v3.11h-4.51v1.81zM197.02 16.95c-.34.02-.64-.05-.9-.23s-.44-.4-.55-.67-.13-.55-.08-.86.19-.56.41-.77c.29-.3.66-.45 1.12-.45s.83.14 1.12.42c.29.29.44.63.44 1.03 0 .45-.15.82-.44 1.11s-.67.42-1.12.42zM208.31 13.46c1.3 0 2.38-.57 3.25-1.71l2.63 2.47c-1.54 1.82-3.52 2.73-5.96 2.73-2 0-3.7-.69-5.1-2.07-1.38-1.39-2.07-3.12-2.07-5.17 0-2.07.7-3.79 2.11-5.16 1.41-1.36 3.13-2.05 5.15-2.05 2.21 0 4.07.8 5.59 2.39l-2.62 2.43c-.74-.88-1.72-1.32-2.92-1.32-1.09 0-1.98.38-2.67 1.14-.69.73-1.03 1.59-1.03 2.57 0 1.01.34 1.89 1.03 2.64.69.74 1.56 1.11 2.61 1.11zM227.7 13.23v3.49h-11.31l-.08-.17 6.01-10.34h-5.07V2.73h10.54l.08.17-6.03 10.33z"/></g></svg>