<svg height="71.475" width="63.534" xmlns="http://www.w3.org/2000/svg"><g opacity=".99"><path d="M0 0h50.827v66.71H0z" fill="#2980b9" opacity=".25"/><path d="M7.942 34.944h34.944v23.825H7.942z" fill="#fff"/><path d="M41.297 36.532V57.18H9.53V36.532zm3.176-3.179H6.353v27h38.12zm-15.883-27h15.883v20.648H28.59zm-22.237 0h15.883v20.648H6.353z" fill="#94c0dc"/><path d="m48.444 39.709-3.922 3.8-5.4-.766-.943 5.381-4.824 2.559 2.4 4.91-2.4 4.907 4.822 2.56.943 5.381 5.4-.766 3.92 3.8 3.922-3.8 5.4.766.943-5.381 4.821-2.56-2.4-4.91 2.4-4.908-4.822-2.56-.943-5.381-5.4.766z" fill="#fe8f01"/></g></svg>