<svg height="64.915" width="63.369" xmlns="http://www.w3.org/2000/svg"><path d="M51 64.915H0V0h34l17 17z" fill="#2980b9" opacity=".25"/><path d="M51.003 17h-17V0z" fill="#94c0dc"/><g fill="#fff"><path d="M12 25h27v3H12zM12 31h25v3H12zM12 37h27v3H12zM12 43h20v3H12z"/></g><path d="m61.824 41.731-11.016-10.53a5.827 5.827 0 0 0-2.388-.3H34.955v.071a3.05 3.05 0 0 0-1.663.94L22.275 44.155a3.061 3.061 0 1 0 4.547 4.1l9.355-10v11.01h13.466v9.793l13.726-.325v-17z" fill="#fe8f01"/><path d="M48.421 46.816H42.3v10.4a3.06 3.06 0 1 0 6.121 0zM42.3 45.592h-6.12v10.4a3.06 3.06 0 0 0 6.121 0zm-6.121-1.224h-6.12v9.181a3.06 3.06 0 1 0 6.121 0z" fill="#c26f06"/><path d="m24.672 58.015-1.852-1.6-1.6 1.855a1.224 1.224 0 0 0 .127 1.726 1.224 1.224 0 0 0 1.726-.127z" fill="#fff"/><path d="M56.941 19.556a3.669 3.669 0 0 0-5.178.376l-12.477 13.86 5.559 4.8 12.475-13.86a3.669 3.669 0 0 0-.379-5.176zM24.278 58.478a24.778 24.778 0 0 0 7.456-4.884l12.309-14.071-5.558-4.8-12.307 14.069a24.72 24.72 0 0 0-3.75 8.083z" fill="#94c0dc"/><path d="m39.286 33.793 5.558 4.8-1.6 1.855-5.558-4.8z" fill="#fff"/><path d="M27.773 49.397a3.677 3.677 0 0 0 2.481 4.478l13.07 3.74c.881.342 5.144 2.281 8.209 1.087a22.608 22.608 0 0 0 6.363-4.14l-8.25-10.193-6.566 3.686-9.96-1.085c-2.81-.465-4.654.365-5.346 2.427" fill="#fe8f01"/><path d="M30.14 52.275a2.214 2.214 0 1 1 1.818-4.037c1.114.5-.7 4.538-1.818 4.037" fill="#f5f5f5" opacity=".5"/><path d="m43.243 40.451-6.091 6.964 5.932.646 6.566-3.686-2.448-4.883-2.167-1.1-.185.206-.8.927-.034.039z" fill="#c26f06"/></svg>