<svg xmlns="http://www.w3.org/2000/svg" width="63.842" height="68" viewBox="0 0 63.842 68"><defs><style>.a{fill:#2980b9;opacity:0.25;}.b{fill:#95c0dc;}.c{fill:#7986cb;}.d{fill:#fff;}.e{fill:#fe8f01;}</style></defs><g transform="translate(-17.842 -4)"><path class="a" d="M63,4V68.6L57.9,72l-5.1-3.4L47.7,72l-5.1-3.4L37.5,72l-5.1-3.4L27.3,72l-5.1-3.4L17.1,72,12,68.6V4l5.1,3.4L22.2,4l5.1,3.4L32.4,4l5.1,3.4L42.6,4l5.1,3.4L52.8,4l5.1,3.4Z" transform="translate(5.842 0)"/><rect class="b" width="21.462" height="4.292" transform="translate(22.842 22.242)"/><rect class="c" width="7.512" height="4.292" transform="translate(56.643 22.242)"/><rect class="b" width="18.242" height="3.219" transform="translate(22.842 29.754)"/><rect class="c" width="7.512" height="3.219" transform="translate(56.643 29.754)"/><rect class="b" width="20.389" height="3.219" transform="translate(22.842 36.192)"/><rect class="c" width="7.512" height="3.219" transform="translate(56.643 36.192)"/><rect class="b" width="23.608" height="4.292" transform="translate(22.842 42.631)"/><rect class="c" width="7.512" height="4.292" transform="translate(56.643 42.631)"/><rect class="b" width="32.192" height="3.219" transform="translate(22.842 14.731)"/><rect class="d" width="7.512" height="3.219" transform="translate(56.643 59.8)"/><rect class="d" width="16.096" height="3.219" transform="translate(36.254 59.8)"/><path class="b" d="M26.441,31v3.4H15V31Z" transform="translate(7.842 18.9)"/><path class="e" d="M33.684,29.842A15.842,15.842,0,1,1,17.842,14,15.889,15.889,0,0,1,33.684,29.842" transform="translate(48 5.842)"/><path class="d" d="M19.373,31.816c0,3.961-3.8,4.436-4.436,4.436V38.47H13.353V36.252A4.878,4.878,0,0,1,8.6,31.024h3.168a2.357,2.357,0,0,0,2.376,2.693c2.059,0,2.059-1.584,2.059-1.9,0-3.485-7.129-2.059-7.129-7.6a4.461,4.461,0,0,1,4.436-4.436V17.4h1.743v2.376c1.109.158,4.119.951,4.119,5.07H16.2c0-.951-.158-2.693-2.059-2.693A1.868,1.868,0,0,0,12.4,24.212c0,3.327,6.971,2.059,6.971,7.6" transform="translate(51.856 7.829)"/></g></svg>