<svg xmlns="http://www.w3.org/2000/svg" width="63.369" height="71.29" viewBox="0 0 63.369 71.29"><defs><style>.a{fill:#2980b9;opacity:0.25;}.b{fill:#94c0dc;}.c{fill:#fff;}.d{fill:#fe8f01;}</style></defs><g transform="translate(-8 -3)"><path class="a" d="M58.7,69.537H8V3H42.853L58.7,18.842Z" transform="translate(0 0)"/><path class="b" d="M44.05,19.55H29V4.5Z" transform="translate(12.269 0.876)"/><path class="c" d="M17.287,51.269a4.657,4.657,0,0,1-1.578-.317,2.849,2.849,0,0,1-1.578-3.485c.631-1.9,4.1-4.277,8.678-6.337h0a57.149,57.149,0,0,0,4.577-11.09,18.1,18.1,0,0,1-2.3-7.921,5.459,5.459,0,0,1,.719-2.852A3.46,3.46,0,0,1,28.649,18a3.034,3.034,0,0,1,3,2.218c.789,1.9.315,5.386-.789,9.347a31.673,31.673,0,0,0,5.523,7.129A21.765,21.765,0,0,1,43.8,36.06c3,.475,3.469,2.535,3.469,3.327,0,3.327-3.471,3.327-4.734,3.327a10.546,10.546,0,0,1-6.785-2.693h0a59.058,59.058,0,0,0-10.573,3.644A27.011,27.011,0,0,1,20.6,49.843,5.54,5.54,0,0,1,17.287,51.269ZM29.595,33.525c-.631,1.9-1.578,3.961-2.367,5.862,1.893-.634,3.788-1.267,5.681-1.743A27.071,27.071,0,0,1,29.595,33.525Z" transform="translate(3.506 8.763)"/><path class="d" d="M57.348,38H32L44.674,53.842Z" transform="translate(14.021 20.448)"/><path class="d" d="M37,31h9.505V50.011H37Z" transform="translate(16.942 16.358)"/></g></svg>