<svg xmlns="http://www.w3.org/2000/svg" width="50.936" height="49.651" viewBox="0 0 50.936 49.651"><defs><style>.a{fill:#057ec2;}.b{fill:#fff;}.c{fill:#025f94;}.d{fill:#fe8f01;}.e{fill:#c1dbeb;}</style></defs><g transform="translate(-4 -4)"><path class="a" d="M53.651,28.826A24.826,24.826,0,1,1,28.826,4,24.825,24.825,0,0,1,53.651,28.826"/><path class="b" d="M47.721,27.86A19.86,19.86,0,1,1,27.86,8a19.86,19.86,0,0,1,19.86,19.86" transform="translate(0.965 0.965)"/><path class="c" d="M40.291,20.831l3.776-3.776a24.759,24.759,0,0,0-1.24-2.27L39.211,18.4A19.906,19.906,0,0,1,40.291,20.831Zm-4.887-7.4,3.51-3.512a24.736,24.736,0,0,0-1.878-1.632l-3.543,3.544A19.962,19.962,0,0,1,35.4,13.431Z" transform="translate(7.116 1.034)"/><path class="d" d="M0,0H6.205V19.78H0Z" transform="translate(15.666 22.124) rotate(-44.984)"/><path class="d" d="M0,0H35.76V6.205H0Z" transform="matrix(0.707, -0.707, 0.707, 0.707, 25.263, 31.727)"/><g transform="translate(8.965 8.965)"><path class="e" d="M11.724,27.86c0-.42.031-.83.063-1.241H8.063C8.036,27.031,8,27.441,8,27.86s.036.829.063,1.241h3.724C11.755,28.691,11.724,28.28,11.724,27.86ZM27.86,11.724c.42,0,.83.031,1.241.063V8.063C28.69,8.036,28.28,8,27.86,8s-.829.036-1.241.063v3.724C27.03,11.755,27.441,11.724,27.86,11.724ZM27.86,44c-.42,0-.83-.031-1.241-.063v3.724c.412.027.822.063,1.241.063s.829-.036,1.241-.063V43.934C28.691,43.966,28.28,44,27.86,44Zm19.8-17.378H43.934c.032.411.063.822.063,1.241s-.031.83-.063,1.241h3.724c.027-.412.063-.822.063-1.241S47.685,27.031,47.658,26.619Z" transform="translate(-8 -8)"/></g></g></svg>