<svg xmlns="http://www.w3.org/2000/svg" width="63.534" height="71.475" viewBox="0 0 63.534 71.475"><defs><style>.a{opacity:0.99;}.b{fill:#2980b9;opacity:0.25;}.c{fill:#fff;}.d{fill:#94c0dc;}.e{fill:#fe8f01;}</style></defs><g class="a" transform="translate(-8 -3)"><path class="b" d="M8,3H58.827V69.71H8Z" transform="translate(0 0)"/><path class="c" d="M13,25H47.944V48.825H13Z" transform="translate(2.942 12.944)"/><path class="d" d="M46.944,37.179V57.827H15.177V37.179H46.944M50.12,34H12V61H50.12V34ZM34.237,7H50.12V27.648H34.237ZM12,7H27.883V27.648H12Z" transform="translate(2.353 2.353)"/><path class="e" d="M44.089,28l-3.922,3.8-5.4-.766-.943,5.381L29,38.974l2.4,4.91L29,48.791l4.822,2.56.943,5.381,5.4-.766,3.92,3.8,3.922-3.8,5.4.766.943-5.381,4.821-2.56-2.4-4.91,2.4-4.908-4.822-2.56-.943-5.381-5.4.766L44.089,28Z" transform="translate(12.355 14.709)"/></g></svg>