<svg xmlns="http://www.w3.org/2000/svg" width="63.369" height="64.915" viewBox="0 0 63.369 64.915"><defs><style>.a{fill:#2980b9;opacity:0.25;}.b{fill:#94c0dc;}.c{fill:#fff;}.d{fill:#fe8f01;}.e{fill:#c26f06;}.f{fill:#f5f5f5;opacity:0.5;}</style></defs><g transform="translate(-7 -3)"><path class="a" d="M58,67.915H7V3H41L58,20Z" transform="translate(0 0)"/><path class="b" d="M46,20H29V3Z" transform="translate(12.003 0)"/><rect class="c" width="27" height="3" transform="translate(19 28)"/><rect class="c" width="25" height="3" transform="translate(19 34)"/><rect class="c" width="27" height="3" transform="translate(19 40)"/><rect class="c" width="20" height="3" transform="translate(19 46)"/><path class="d" d="M61.238,33.822,50.222,23.292a5.827,5.827,0,0,0-2.388-.3H34.369v.071a3.05,3.05,0,0,0-1.663.94L21.689,36.246a3.06,3.06,0,1,0,4.547,4.1l9.355-10V41.356H49.057v9.793l13.726-.325v-17Z" transform="translate(7.586 10.909)"/><path class="e" d="M44.81,34.154H38.689v10.4a3.06,3.06,0,1,0,6.121,0ZM38.689,32.93H32.569v10.4a3.06,3.06,0,0,0,6.121,0Zm-6.121-1.224H26.448v9.181a3.06,3.06,0,1,0,6.121,0Z" transform="translate(10.611 15.662)"/><path class="c" d="M24.287,41.1l-1.852-1.6-1.6,1.855a1.224,1.224,0,0,0,.127,1.726h0a1.224,1.224,0,0,0,1.726-.127Z" transform="translate(7.385 19.915)"/><path class="b" d="M50.073,15.969a3.669,3.669,0,0,0-5.178.376L32.418,30.205l5.559,4.8L50.452,21.145A3.669,3.669,0,0,0,50.073,15.969Z" transform="translate(13.868 6.587)"/><path class="b" d="M23.361,49.222a24.778,24.778,0,0,0,7.456-4.884L43.126,30.267l-5.558-4.8L25.261,39.536a24.72,24.72,0,0,0-3.75,8.083Z" transform="translate(7.917 12.256)"/><path class="c" d="M32.983,24.864l5.558,4.8-1.6,1.855-5.558-4.8Z" transform="translate(13.303 11.929)"/><path class="d" d="M25.027,36.735h0a3.677,3.677,0,0,0,2.481,4.478l13.07,3.74c.881.342,5.144,2.281,8.209,1.087A22.608,22.608,0,0,0,55.15,41.9L46.9,31.707l-6.566,3.686-9.96-1.085c-2.81-.465-4.654.365-5.346,2.427" transform="translate(9.746 15.662)"/><path class="f" d="M26.962,38.317a2.214,2.214,0,1,1,1.818-4.037c1.114.5-.7,4.538-1.818,4.037" transform="translate(10.178 16.958)"/><path class="e" d="M37.13,29.9l0,0-6.091,6.964,5.932.646,6.566-3.686-2.448-4.883-2.167-1.1-.185.206-.8.927h0l-.034.039Z" transform="translate(13.113 13.551)"/></g></svg>